<svg xmlns="http://www.w3.org/2000/svg" version="1.1" xmlns:xlink= "http://www.w3.org/1999/xlink">
 <style xmlns="http://www.w3.org/2000/svg" type="text/css">
   rect,line{fill:none;stroke:brown}
   rect{width:80px;height:80px;rx:15px;ry:15px}
 </style>
 <image x="40" y="100" height="400" width="600"
   xlink:href="http://192.168.42.10/mille/white-parchment-paper-texture-600x400.jpg"/>
<g transform="rotate(45,250,250)">

  <rect x="310" y="210"/>
  <rect x="210" y="110"/>
  <rect x="210" y="210"/>
  <rect x="210" y="310"/>
  <rect x="110" y="310"/>
  <text x="310" y="255" transform="rotate(-45,350,250)">Redmond</text>
  <text x="210" y="155" transform="rotate(-45,250,150)">Northside</text>
  <text x="210" y="255" transform="rotate(-45,250,250)">Downtown</text>
  <text x="210" y="355" transform="rotate(-45,250,350)">Penumbra</text>
  <text x="110" y="355" transform="rotate(-45,150,350)">Puyullup</text>

  <text x="310" y="155" transform="rotate(-45,350,150)">Docks</text>
  <text x="310" y="355" transform="rotate(-45,350,350)">Graveyard</text>
  <text x="410" y="255" transform="rotate(-45,450,250)">Rats Nest</text>

  <line x1="350" x2="350" y1="190" y2="210"/>
  <line x1="350" x2="350" y1="290" y2="310"/>
  <line x1="250" x2="250" y1="190" y2="210"/>
  <line x1="250" x2="250" y1="290" y2="310"/>
  <line x1="290" x2="310" y1="250" y2="250"/>
  <line x1="390" x2="410" y1="250" y2="250"/>
  <line x1="190" x2="210" y1="350" y2="350"/>
</g>

</svg>
